<svg xmlns="http://www.w3.org/2000/svg" width="176.768" height="24.496" viewBox="0 0 176.768 24.496">
  <g id="Group_81" data-name="Group 81" transform="translate(2598.348 -293.468) rotate(90)">
    <path id="Path_1104" data-name="Path 1104" d="M438.038,913.152a8.019,8.019,0,0,1-8.019,8.019h0A8.019,8.019,0,0,1,422,913.152v-8.78" transform="translate(-125.25 1518.708)" fill="none" stroke="#05baee" stroke-linecap="round" stroke-linejoin="round" stroke-width="3"/>
    <path id="Path_1109" data-name="Path 1109" d="M422,913.152a8.019,8.019,0,0,0,8.019,8.019h0a8.019,8.019,0,0,0,8.019-8.019v-8.78" transform="translate(-123.357 1610.451)" fill="none" stroke="#05baee" stroke-linecap="round" stroke-linejoin="round" stroke-width="3"/>
    <path id="Path_1105" data-name="Path 1105" d="M9.8,19.6A9.8,9.8,0,0,1,9.8,0" transform="translate(316.464 2505.105) rotate(180)" fill="none" stroke="#ffdc00" stroke-linecap="round" stroke-linejoin="round" stroke-width="3"/>
    <path id="Path_1107" data-name="Path 1107" d="M9.8,0a9.8,9.8,0,0,0,0,19.6" transform="translate(294.968 2577.245)" fill="none" stroke="#ffdc00" stroke-linecap="round" stroke-linejoin="round" stroke-width="3"/>
    <path id="Path_1106" data-name="Path 1106" d="M313.8,756.6a9.8,9.8,0,1,1,0-19.6" transform="translate(-9.032 1737.03)" fill="none" stroke="#13a438" stroke-linecap="round" stroke-linejoin="round" stroke-width="3"/>
    <path id="Path_1108" data-name="Path 1108" d="M304,756.6a9.8,9.8,0,1,0,0-19.6" transform="translate(2.662 1828.772)" fill="none" stroke="#13a438" stroke-linecap="round" stroke-linejoin="round" stroke-width="3"/>
    <circle id="Ellipse_10" data-name="Ellipse 10" cx="7.073" cy="7.073" r="7.073" transform="translate(312.789 2464.312) rotate(180)" fill="none" stroke="#e5332a" stroke-linecap="round" stroke-linejoin="round" stroke-width="3"/>
    <circle id="Ellipse_11" data-name="Ellipse 11" cx="7.073" cy="7.073" r="7.073" transform="translate(298.643 2541.909)" fill="none" stroke="#e5332a" stroke-linecap="round" stroke-linejoin="round" stroke-width="3"/>
  </g>
</svg>
